# xmcd
# 
# Track frame offsets:
#     150
#     12374
#     30449
#     43036
#     53885
#     68542
#     88775
#     102757
#     121931
#     134018
#     147101
#     160741
#     198305
# 
# Disc length: 2841
# 
# Revision: 6
# Processed by: cddbd v1.5.2PL0 Copyright (c) Steve Scherf et al.
# Submitted via: fre:ac v1.1beta1
# 
DISCID=a90b170d
DTITLE=The Beatles - The Beatles And Esher Demos [CD2] (White Album) [Remastered]
DYEAR=2018
DGENRE=Rock/Pop
TTITLE0=Birthday
TTITLE1=Yer Blues
TTITLE2=Mother Nature's Son
TTITLE3=Everybody's Got Something To Hide Except Me And My Monkey
TTITLE4=Sexy Sadie
TTITLE5=Helter Skelter
TTITLE6=Long, Long, Long
TTITLE7=Revolution I
TTITLE8=Honey Pie
TTITLE9=Savoy Truffle
TTITLE10=Cry Baby Cry
TTITLE11=Revolution 9
TTITLE12=Good Night
EXTD=MARO\n
EXTT0=
EXTT1=
EXTT2=
EXTT3=
EXTT4=
EXTT5=
EXTT6=
EXTT7=
EXTT8=
EXTT9=
EXTT10=
EXTT11=
EXTT12=
PLAYORDER=
